Coordinates
nRows=5
nColumns=38

# SIMM Motion File Header:
name Coordinates
datacolumns 38
datarows 5
otherdata 1
range 2.43290000000000010000 2.43690000000000010000

Units are S.I. units (second, meters, Newtons, ...)
Angles are in degrees.

endheader
time	pelvis_tilt	pelvis_list	pelvis_rotation	pelvis_tx	pelvis_ty	pelvis_tz	hip_flexion_r	hip_adduction_r	hip_rotation_r	knee_angle_r	ankle_angle_r	subtalar_angle_r	mtp_angle_r	hip_flexion_l	hip_adduction_l	hip_rotation_l	knee_angle_l	ankle_angle_l	subtalar_angle_l	mtp_angle_l	lumbar_extension	lumbar_bending	lumbar_rotation	arm_flex_r	arm_add_r	arm_rot_r	elbow_flex_r	pro_sup_r	wrist_flex_r	wrist_dev_r	arm_flex_l	arm_add_l	arm_rot_l	elbow_flex_l	pro_sup_l	wrist_flex_l	wrist_dev_l
      2.43290000000000010000	     -0.91430397704157029000	      8.24538637903912350000	      2.90140462520927710000	      0.87671563176859424000	      1.03401834359269200000	     -0.30227342114289923000	     31.61104260701734600000	     -3.96046626726719970000	      3.42419363804077160000	   -101.29157945237361000000	      8.70787257886110840000	      0.00000000000014105605	     -0.00000000000015963070	     13.17254165613641500000	     13.28172050054321200000	     -0.92875171494608078000	    -44.38270845366147900000	     28.77858366612764500000	      0.00000000000000362358	      0.00000000000007958874	    -21.05964154914030600000	    -11.83308700310861600000	    -17.95162635802192600000	    -20.99674391054014700000	    -24.39425709952429600000	     10.80758413684124800000	     90.22278118288316800000	    131.64282647477381000000	      0.00000000000005401562	      0.00000000000005544616	     -6.36902616910963100000	    -27.30735152302128600000	      3.05743504946132520000	    113.93575739467592000000	     99.20478168653491500000	     -0.00000000000000276655	     -0.00000000000001900288
      2.43390000000000000000	     -0.95140584190316357000	      8.16791389391740450000	      2.91640569481181580000	      0.87674697354789077000	      1.03426851467090250000	     -0.30232344455891907000	     31.86225205400322500000	     -3.89498475513282830000	      3.40829259361139720000	   -101.11145396061931000000	      8.78678659887263440000	      0.00000000000014143518	     -0.00000000000016003733	     12.93436486427010700000	     13.21224634375975200000	     -0.83486366378355126000	    -44.23428634553849300000	     28.77582455890611300000	      0.00000000000000366764	      0.00000000000007957906	    -20.99459730573102000000	    -11.71888831500499800000	    -18.05382650954198100000	    -21.17323451323433400000	    -24.47684129155884800000	     10.82408046003091200000	     90.26687665532743700000	    131.69073641066865000000	      0.00000000000005417417	      0.00000000000005562386	     -6.38879540391085230000	    -27.25526693252021800000	      2.91889513063934160000	    114.12439441472659000000	     99.28464948778943700000	     -0.00000000000000277705	     -0.00000000000001902515
      2.43489999999999980000	     -0.98835482831696353000	      8.08918058466507440000	      2.93127642999489970000	      0.87678418400557312000	      1.03452706097221060000	     -0.30237196826458090000	     32.11042190371834700000	     -3.82871333647426050000	      3.39009899963116680000	   -100.92543960168413000000	      8.86670686969842060000	      0.00000000000014181179	     -0.00000000000016044396	     12.69445286663244400000	     13.14103538872766900000	     -0.73979128069494993000	    -44.08248651215026100000	     28.76891158578314400000	      0.00000000000000371972	      0.00000000000007959402	    -20.92876855848249600000	    -11.60330427220054400000	    -18.15442569657453500000	    -21.35248616777531800000	    -24.55949204077481000000	     10.83841915006287900000	     90.31535873019866800000	    131.73374073346065000000	      0.00000000000005433407	      0.00000000000005580275	     -6.40924478823172980000	    -27.20309462955710700000	      2.78174490622148300000	    114.31420396437423000000	     99.36571019961476700000	     -0.00000000000000278877	     -0.00000000000001905475
      2.43589999999999970000	     -1.02511203699120970000	      8.00921598879391540000	      2.94602261201348540000	      0.87682724437865656000	      1.03479400449314380000	     -0.30241897361246123000	     32.35548417527498800000	     -3.76169684823020440000	      3.36960916305213630000	   -100.73356130045663000000	      8.94752742113248620000	      0.00000000000014219638	     -0.00000000000016085077	     12.45280914793894800000	     13.06810531063240400000	     -0.64357023317076267000	    -43.92736286120455000000	     28.75775562513866000000	      0.00000000000000376792	      0.00000000000007966782	    -20.86221891520820300000	    -11.48637267221985400000	    -18.25343921013967100000	    -21.53443220759945800000	    -24.64214362335065200000	     10.85055849409274800000	     90.36801383317134700000	    131.77193240900894000000	      0.00000000000005449286	      0.00000000000005597923	     -6.43030163672176780000	    -27.15083403589851600000	      2.64605566951320270000	    114.50504895989725000000	     99.44801307694140700000	     -0.00000000000000280120	     -0.00000000000001906938
      2.43690000000000010000	     -1.06163811131022160000	      7.92804886318180020000	      2.96064875849681860000	      0.87687613305661682000	      1.03506936500465740000	     -0.30246444162372133000	     32.59737152158996300000	     -3.69397726190379980000	      3.34682149437936530000	   -100.53584342240866000000	      9.02913968705691160000	      0.00000000000014258545	     -0.00000000000016125746	     12.20943747069712500000	     12.99347212532804900000	     -0.54624030939498003000	    -43.76896988119416000000	     28.74226581357771000000	      0.00000000000000384823	      0.00000000000007967932	    -20.79501294519627700000	    -11.36813043201977200000	    -18.35088336500244200000	    -21.71900200206354400000	    -24.72473172082300500000	     10.86046020474671900000	     90.42462882545783000000	    131.80541655312706000000	      0.00000000000005465085	      0.00000000000005615178	     -6.45190020319201720000	    -27.09848444393457700000	      2.51189307689306180000	    114.69679907197373000000	     99.53160389999375500000	     -0.00000000000000281446	     -0.00000000000001909278
